Coordinates
version=1
nRows=4
nColumns=107
inDegrees=yes

Units are S.I. units (second, meters, Newtons, ...)
If the header above contains a line with 'inDegrees', this indicates whether rotational values are in degrees (yes) or radians (no).

endheader
time	sternoclavicular_r2	sternoclavicular_r3	unrotscap_r3	unrotscap_r2	acromioclavicular_r2	acromioclavicular_r3	acromioclavicular_r1	unrothum_r1	unrothum_r3	unrothum_r2	elv_angle	shoulder_elv	shoulder1_r2	shoulder_rot	elbow_flexion	pro_sup	deviation	flexion	proximal_distal_r1	proximal_distal_r3	cmc_flexion	cmc_abduction	mp_flexion	ip_flexion	mcp2_flexion	mcp2_abduction	pm2_flexion	md2_flexion	mcp3_flexion	mcp3_abduction	pm3_flexion	md3_flexion	mcp4_flexion	mcp4_abduction	pm4_flexion	md4_flexion	mcp5_flexion	mcp5_abduction	pm5_flexion	md5_flexion	bicpt_tx	bicpt_ty	bicpt_tz	bicpt2_tx	bicpt2_ty	bicpt2_tz	ptpt_tx	ptpt_ty	ptpt_tz	FCUpt_tx	FCUpt_ty	FCUpt_tz	EDCpt_tx	EDCpt_ty	EDCpt_tz	APLpt_tx	APLpt_ty	APLpt_tz	FPLpt_tx	FPLpt_ty	FPLpt_tz	FPLpt2_tx	FPLpt2_ty	FPLpt2_tz	PEC1pt2_tx	PEC1pt2_ty	PEC1pt2_tz	PEC1pt3_tx	PEC1pt3_ty	PEC1pt3_tz	PEC2pt2_tx	PEC2pt2_ty	PEC2pt2_tz	PEC2pt3_tx	PEC2pt3_ty	PEC2pt3_tz	PEC3pt2_tx	PEC3pt2_ty	PEC3pt2_tz	PEC3pt3_tx	PEC3pt3_ty	PEC3pt3_tz	DELT2pt2a_tx	DELT2pt2a_ty	DELT2pt2a_tz	DELT2pt2_tx	DELT2pt2_ty	DELT2pt2_tz	LAT1pt2_tx	LAT1pt2_ty	LAT1pt2_tz	LAT1pt3_tx	LAT1pt3_ty	LAT1pt3_tz	LAT2pt2_tx	LAT2pt2_ty	LAT2pt2_tz	LAT2pt3_tx	LAT2pt3_ty	LAT2pt3_tz	LAT3pt2_tx	LAT3pt2_ty	LAT3pt2_tz	LAT3pt3_tx	LAT3pt3_ty	LAT3pt3_tz
      1.53333333	     -0.31190228	      0.13210708	     -0.13210708	      0.31190228	     -0.06315387	      0.51038734	      0.22941560	     -0.22941560	     -0.51038734	      0.06315387	    100.83709575	     73.84563693	     -1.75993933	    -36.06577530	     33.04707987	     85.75821766	      0.35362515	     -0.50194685	      0.37756422	     -0.25097342	     40.91039981	    -22.21426094	      6.52383814	      8.44852682	     67.86223109	     13.56999147	     64.99256729	     80.95869512	     73.03931075	      3.23125083	     70.56540790	     48.43622507	     68.03641504	    -12.52269642	     79.42543915	     40.23951294	     70.80266674	    -14.34136417	     79.93854640	      5.48195967	      0.00099309	     -0.03138770	     -0.00491010	      0.01426483	     -0.01917740	     -0.00111740	      0.00121344	     -0.06899733	     -0.00695828	      0.01271024	     -0.18224591	      0.00007716	     -0.01029096	      0.00356475	     -0.00074947	      0.00030257	      0.00012103	      0.00060513	      0.00038728	      0.00116185	      0.00065354	     -0.00000923	     -0.00009295	     -0.00011154	      0.00242050	      0.00849226	      0.00590766	     -0.00791790	      0.01911783	     -0.01813322	      0.00242050	      0.00849226	      0.00590766	      0.00053333	      0.01772297	     -0.00931276	      0.00385908	      0.00472244	      0.01574633	      0.00000000	      0.00728988	      0.00000000	     -0.00693329	     -0.03204083	     -0.00600795	      0.02132090	     -0.00096898	     -0.01066251	     -0.00086153	      0.01444094	     -0.00590766	      0.00237947	      0.02084090	     -0.01723066	     -0.00578458	      0.01251274	     -0.00529228	     -0.01206146	      0.02642035	     -0.02957931	     -0.02264601	      0.01398966	     -0.00709739	     -0.01501529	      0.03052289	     -0.03696388
      1.56666667	     -0.31097589	      0.13171471	     -0.13171471	      0.31097589	     -0.06296629	      0.50887142	      0.22873420	     -0.22873420	     -0.50887142	      0.06296629	    100.77656576	     73.62630578	     -1.75888288	    -36.01480354	     33.62359032	     85.77227385	      0.35175576	     -0.44287834	      0.37610673	     -0.22143917	     40.29839108	    -21.56213142	      5.69083499	      8.42518374	     58.05228548	     13.66001676	     57.44253125	     76.43395861	     62.53272175	      4.01133005	     65.04364293	     44.91097714	     57.31348107	    -11.07493622	     71.36679708	     38.77029819	     58.96754266	    -14.37270705	     69.30132846	      5.54063782	      0.00101216	     -0.03145378	     -0.00492074	      0.01426339	     -0.01933401	     -0.00111500	      0.00121240	     -0.06899800	     -0.00695942	      0.01271185	     -0.18224544	      0.00007754	     -0.01029265	      0.00356552	     -0.00074992	      0.00028887	      0.00011555	      0.00057774	      0.00036975	      0.00110926	      0.00062396	     -0.00001010	     -0.00010526	     -0.00012631	      0.00241331	      0.00846703	      0.00589011	     -0.00789438	      0.01906105	     -0.01807936	      0.00241331	      0.00846703	      0.00589011	      0.00053175	      0.01767033	     -0.00928510	      0.00385058	      0.00470841	      0.01572474	      0.00000000	      0.00724637	      0.00000000	     -0.00691270	     -0.03194566	     -0.00597180	      0.02130245	     -0.00096716	     -0.01063427	     -0.00085897	      0.01439805	     -0.00589011	      0.00237241	      0.02077900	     -0.01717949	     -0.00576740	      0.01247558	     -0.00527656	     -0.01202564	      0.02634188	     -0.02949145	     -0.02257875	      0.01394811	     -0.00707631	     -0.01497069	      0.03043223	     -0.03685409
      1.60000000	     -0.30986454	      0.13124400	     -0.13124400	      0.30986454	     -0.06274127	      0.50705285	      0.22791677	     -0.22791677	     -0.50705285	      0.06274127	    100.73746679	     73.36318486	     -1.75820048	    -36.12220041	     34.23977791	     85.27523851	      0.34346142	     -0.37982993	      0.36956991	     -0.18991497	     39.59352698	    -20.36954199	      4.47299500	      8.03667319	     47.27810515	     13.60458491	     45.90513313	     69.69468043	     50.27553182	      4.12037657	     55.06017229	     40.10670775	     45.21478161	     -8.47344278	     57.98301693	     33.95667075	     47.10609475	    -14.37985085	     48.97549955	      5.45525217	      0.00103255	     -0.03152440	     -0.00493212	      0.01431423	     -0.01950140	     -0.00119979	      0.00124912	     -0.06897425	     -0.00691938	      0.01265482	     -0.18226221	      0.00006403	     -0.01023300	      0.00353832	     -0.00073409	      0.00026781	      0.00010712	      0.00053562	      0.00034280	      0.00102839	      0.00057847	     -0.00001094	     -0.00011893	     -0.00014272	      0.00240468	      0.00843677	      0.00586906	     -0.00786617	      0.01899293	     -0.01801475	      0.00240468	      0.00843677	      0.00586906	      0.00052985	      0.01760718	     -0.00925192	      0.00384036	      0.00469158	      0.01569869	      0.00000000	      0.00719435	      0.00000000	     -0.00688799	     -0.03183150	     -0.00592858	      0.02134132	     -0.00097099	     -0.01069378	     -0.00085590	      0.01434659	     -0.00586906	      0.00236393	      0.02070474	     -0.01711809	     -0.00574679	      0.01243099	     -0.00525770	     -0.01198266	      0.02624774	     -0.02938606	     -0.02249806	      0.01389826	     -0.00705102	     -0.01491719	      0.03032348	     -0.03672238
      1.63333333	     -0.30955663	      0.13111358	     -0.13111358	      0.30955663	     -0.06267892	      0.50654899	      0.22769028	     -0.22769028	     -0.50654899	      0.06267892	    100.66139749	     73.29028338	     -1.75687282	    -35.73456578	     34.54822987	     84.12593808	      0.33252429	     -0.31183262	      0.36077816	     -0.15591631	     38.34860208	    -19.28316747	      4.01065025	      8.22971696	     33.88146529	     13.38090853	     37.38061390	     59.63098299	     36.45817437	      3.21814977	     43.59470603	     32.53160169	     32.50893823	     -6.02372818	     41.98293833	     27.34844917	     35.58906136	    -14.31854536	     24.52339847	      5.40108855	      0.00104275	     -0.03155976	     -0.00493781	      0.01442961	     -0.01958520	     -0.00139451	      0.00133404	     -0.06891934	     -0.00682680	      0.01252326	     -0.18230070	      0.00003350	     -0.01009509	      0.00347571	     -0.00069799	      0.00023762	      0.00009505	      0.00047523	      0.00030415	      0.00091244	      0.00051325	     -0.00001204	     -0.00014171	     -0.00017005	      0.00240229	      0.00842839	      0.00586323	     -0.00785835	      0.01897406	     -0.01799685	      0.00240229	      0.00842839	      0.00586323	      0.00052932	      0.01758968	     -0.00924273	      0.00383752	      0.00468692	      0.01569144	      0.00000000	      0.00717997	      0.00000000	     -0.00688115	     -0.03179987	     -0.00591664	      0.02120022	     -0.00095718	     -0.01047958	     -0.00085505	      0.01433233	     -0.00586323	      0.00236158	      0.02068416	     -0.01710108	     -0.00574108	      0.01241864	     -0.00525247	     -0.01197076	      0.02622166	     -0.02935685	     -0.02247571	      0.01388445	     -0.00704402	     -0.01490237	      0.03029334	     -0.03668589
